<?xml version="1.0" encoding="UTF-8" standalone="no"?>
<!DOCTYPE svg PUBLIC "-//W3C//DTD SVG 1.1//EN"
 "http://www.w3.org/Graphics/SVG/1.1/DTD/svg11.dtd">
<!-- Generated by graphviz version 2.38.0 (20140413.2041)
 -->
<!-- Title: output Pages: 1 -->
<svg width="651pt" height="1939pt"
 viewBox="0.00 0.00 651.00 1939.00" xmlns="http://www.w3.org/2000/svg" xmlns:xlink="http://www.w3.org/1999/xlink">
<g id="graph0" class="graph" transform="scale(1 1) rotate(0) translate(4 1935)">
<title>output</title>
<polygon fill="white" stroke="none" points="-4,4 -4,-1935 647,-1935 647,4 -4,4"/>
<!-- Legend -->
<g id="node1" class="node"><title>Legend</title>
<polygon fill="#e0e0e0" stroke="none" points="8.5,-1876.5 8.5,-1899.5 209.5,-1899.5 209.5,-1876.5 8.5,-1876.5"/>
<polygon fill="none" stroke="black" points="8.5,-1876.5 8.5,-1899.5 209.5,-1899.5 209.5,-1876.5 8.5,-1876.5"/>
<text text-anchor="start" x="93" y="-1884.3" font-family="Times,serif" font-size="14.00">Layer</text>
<polygon fill="#88ffff" stroke="none" points="8.5,-1838.5 8.5,-1876.5 89.5,-1876.5 89.5,-1838.5 8.5,-1838.5"/>
<polygon fill="none" stroke="black" points="8.5,-1838.5 8.5,-1876.5 89.5,-1876.5 89.5,-1838.5 8.5,-1838.5"/>
<text text-anchor="start" x="12.5" y="-1861.3" font-family="Times,serif" font-size="14.00"> Complexity </text>
<text text-anchor="start" x="15" y="-1846.3" font-family="Times,serif" font-size="14.00"> (MFLOPs) </text>
<polygon fill="#ff88ff" stroke="none" points="89.5,-1838.5 89.5,-1876.5 164.5,-1876.5 164.5,-1838.5 89.5,-1838.5"/>
<polygon fill="none" stroke="black" points="89.5,-1838.5 89.5,-1876.5 164.5,-1876.5 164.5,-1838.5 89.5,-1838.5"/>
<text text-anchor="start" x="93.5" y="-1861.3" font-family="Times,serif" font-size="14.00"> Bandwidth </text>
<text text-anchor="start" x="103" y="-1846.3" font-family="Times,serif" font-size="14.00"> (MB/s) </text>
<polygon fill="#ffff88" stroke="none" points="164.5,-1838.5 164.5,-1876.5 209.5,-1876.5 209.5,-1838.5 164.5,-1838.5"/>
<polygon fill="none" stroke="black" points="164.5,-1838.5 164.5,-1876.5 209.5,-1876.5 209.5,-1838.5 164.5,-1838.5"/>
<text text-anchor="start" x="168.5" y="-1861.3" font-family="Times,serif" font-size="14.00"> Time </text>
<text text-anchor="start" x="172" y="-1846.3" font-family="Times,serif" font-size="14.00"> (ms)</text>
</g>
<!-- input -->
<g id="node2" class="node"><title>input</title>
<polygon fill="#a3a3a3" stroke="none" points="243.5,-1888.5 243.5,-1911.5 415.5,-1911.5 415.5,-1888.5 243.5,-1888.5"/>
<polygon fill="none" stroke="black" points="243.5,-1888.5 243.5,-1911.5 415.5,-1911.5 415.5,-1888.5 243.5,-1888.5"/>
<text text-anchor="start" x="315.5" y="-1896.3" font-family="Times,serif" font-size="14.00">input</text>
<polygon fill="#dddddd" stroke="none" points="243.5,-1865.5 243.5,-1888.5 415.5,-1888.5 415.5,-1865.5 243.5,-1865.5"/>
<polygon fill="none" stroke="black" points="243.5,-1865.5 243.5,-1888.5 415.5,-1888.5 415.5,-1865.5 243.5,-1865.5"/>
<text text-anchor="start" x="293" y="-1873.3" font-family="Times,serif" font-size="14.00">(1, 1, 30, 14)</text>
<polygon fill="#b1f1ef" stroke="none" points="243.5,-1827.5 243.5,-1865.5 319.5,-1865.5 319.5,-1827.5 243.5,-1827.5"/>
<polygon fill="none" stroke="black" points="243.5,-1827.5 243.5,-1865.5 319.5,-1865.5 319.5,-1827.5 243.5,-1827.5"/>
<text text-anchor="start" x="269" y="-1850.3" font-family="Times,serif" font-size="14.00"> 0.0 </text>
<text text-anchor="start" x="247.5" y="-1835.3" font-family="Times,serif" font-size="14.00"> (MFLOPs) </text>
<polygon fill="#ffe5fc" stroke="none" points="319.5,-1827.5 319.5,-1865.5 375.5,-1865.5 375.5,-1827.5 319.5,-1827.5"/>
<polygon fill="none" stroke="black" points="319.5,-1827.5 319.5,-1865.5 375.5,-1865.5 375.5,-1827.5 319.5,-1827.5"/>
<text text-anchor="start" x="331.5" y="-1850.3" font-family="Times,serif" font-size="14.00"> 0.00 </text>
<text text-anchor="start" x="323.5" y="-1835.3" font-family="Times,serif" font-size="14.00"> (MB/s) </text>
<polygon fill="#ffffcc" stroke="none" points="375.5,-1827.5 375.5,-1865.5 415.5,-1865.5 415.5,-1827.5 375.5,-1827.5"/>
<polygon fill="none" stroke="black" points="375.5,-1827.5 375.5,-1865.5 415.5,-1865.5 415.5,-1827.5 375.5,-1827.5"/>
<text text-anchor="start" x="379.5" y="-1850.3" font-family="Times,serif" font-size="14.00"> 0.00 </text>
<text text-anchor="start" x="380.5" y="-1835.3" font-family="Times,serif" font-size="14.00"> (ms)</text>
</g>
<!-- data -->
<g id="node3" class="node"><title>data</title>
<ellipse fill="none" stroke="black" cx="329.5" cy="-1754" rx="27" ry="18"/>
<text text-anchor="middle" x="329.5" y="-1750.3" font-family="Times,serif" font-size="14.00">data</text>
</g>
<!-- input&#45;&gt;data -->
<g id="edge1" class="edge"><title>input&#45;&gt;data</title>
<path fill="none" stroke="black" d="M329.5,-1823.32C329.5,-1809.35 329.5,-1794.42 329.5,-1782.08"/>
<polygon fill="black" stroke="black" points="333,-1782 329.5,-1772 326,-1782 333,-1782"/>
</g>
<!-- conv2d_1 -->
<g id="node4" class="node"><title>conv2d_1</title>
<polygon fill="#a3a3a3" stroke="none" points="243.5,-1673 243.5,-1696 415.5,-1696 415.5,-1673 243.5,-1673"/>
<polygon fill="none" stroke="black" points="243.5,-1673 243.5,-1696 415.5,-1696 415.5,-1673 243.5,-1673"/>
<text text-anchor="start" x="302.5" y="-1680.8" font-family="Times,serif" font-size="14.00">conv2d_1</text>
<polygon fill="#dddddd" stroke="none" points="243.5,-1650 243.5,-1673 415.5,-1673 415.5,-1650 243.5,-1650"/>
<polygon fill="none" stroke="black" points="243.5,-1650 243.5,-1673 415.5,-1673 415.5,-1650 243.5,-1650"/>
<text text-anchor="start" x="290" y="-1657.8" font-family="Times,serif" font-size="14.00">(1, 32, 28, 12)</text>
<polygon fill="#a2edea" stroke="none" points="243.5,-1612 243.5,-1650 319.5,-1650 319.5,-1612 243.5,-1612"/>
<polygon fill="none" stroke="black" points="243.5,-1612 243.5,-1650 319.5,-1650 319.5,-1612 243.5,-1612"/>
<text text-anchor="start" x="252" y="-1634.8" font-family="Times,serif" font-size="14.00"> 0.193536 </text>
<text text-anchor="start" x="247.5" y="-1619.8" font-family="Times,serif" font-size="14.00"> (MFLOPs) </text>
<polygon fill="#fee4fb" stroke="none" points="319.5,-1612 319.5,-1650 375.5,-1650 375.5,-1612 319.5,-1612"/>
<polygon fill="none" stroke="black" points="319.5,-1612 319.5,-1650 375.5,-1650 375.5,-1612 319.5,-1612"/>
<text text-anchor="start" x="331.5" y="-1634.8" font-family="Times,serif" font-size="14.00"> 0.81 </text>
<text text-anchor="start" x="323.5" y="-1619.8" font-family="Times,serif" font-size="14.00"> (MB/s) </text>
<polygon fill="#ffff00" stroke="none" points="375.5,-1612 375.5,-1650 415.5,-1650 415.5,-1612 375.5,-1612"/>
<polygon fill="none" stroke="black" points="375.5,-1612 375.5,-1650 415.5,-1650 415.5,-1612 375.5,-1612"/>
<text text-anchor="start" x="379.5" y="-1634.8" font-family="Times,serif" font-size="14.00"> 1.75 </text>
<text text-anchor="start" x="380.5" y="-1619.8" font-family="Times,serif" font-size="14.00"> (ms)</text>
</g>
<!-- data&#45;&gt;conv2d_1 -->
<g id="edge2" class="edge"><title>data&#45;&gt;conv2d_1</title>
<path fill="none" stroke="black" d="M329.5,-1735.93C329.5,-1728.6 329.5,-1719.58 329.5,-1710.26"/>
<polygon fill="black" stroke="black" points="333,-1710.08 329.5,-1700.08 326,-1710.08 333,-1710.08"/>
</g>
<!-- activation_1 -->
<g id="node5" class="node"><title>activation_1</title>
<polygon fill="#a3a3a3" stroke="none" points="243.5,-1545 243.5,-1568 415.5,-1568 415.5,-1545 243.5,-1545"/>
<polygon fill="none" stroke="black" points="243.5,-1545 243.5,-1568 415.5,-1568 415.5,-1545 243.5,-1545"/>
<text text-anchor="start" x="296" y="-1552.8" font-family="Times,serif" font-size="14.00">activation_1</text>
<polygon fill="#dddddd" stroke="none" points="243.5,-1522 243.5,-1545 415.5,-1545 415.5,-1522 243.5,-1522"/>
<polygon fill="none" stroke="black" points="243.5,-1522 243.5,-1545 415.5,-1545 415.5,-1522 243.5,-1522"/>
<text text-anchor="start" x="290" y="-1529.8" font-family="Times,serif" font-size="14.00">(1, 32, 28, 12)</text>
<polygon fill="#aef0ee" stroke="none" points="243.5,-1484 243.5,-1522 319.5,-1522 319.5,-1484 243.5,-1484"/>
<polygon fill="none" stroke="black" points="243.5,-1484 243.5,-1522 319.5,-1522 319.5,-1484 243.5,-1484"/>
<text text-anchor="start" x="252" y="-1506.8" font-family="Times,serif" font-size="14.00"> 0.032256 </text>
<text text-anchor="start" x="247.5" y="-1491.8" font-family="Times,serif" font-size="14.00"> (MFLOPs) </text>
<polygon fill="#f1c0eb" stroke="none" points="319.5,-1484 319.5,-1522 375.5,-1522 375.5,-1484 319.5,-1484"/>
<polygon fill="none" stroke="black" points="319.5,-1484 319.5,-1522 375.5,-1522 375.5,-1484 319.5,-1484"/>
<text text-anchor="start" x="324.5" y="-1506.8" font-family="Times,serif" font-size="14.00"> 339.58 </text>
<text text-anchor="start" x="323.5" y="-1491.8" font-family="Times,serif" font-size="14.00"> (MB/s) </text>
<polygon fill="#ffffc5" stroke="none" points="375.5,-1484 375.5,-1522 415.5,-1522 415.5,-1484 375.5,-1484"/>
<polygon fill="none" stroke="black" points="375.5,-1484 375.5,-1522 415.5,-1522 415.5,-1484 375.5,-1484"/>
<text text-anchor="start" x="379.5" y="-1506.8" font-family="Times,serif" font-size="14.00"> 0.06 </text>
<text text-anchor="start" x="380.5" y="-1491.8" font-family="Times,serif" font-size="14.00"> (ms)</text>
</g>
<!-- conv2d_1&#45;&gt;activation_1 -->
<g id="edge3" class="edge"><title>conv2d_1&#45;&gt;activation_1</title>
<path fill="none" stroke="black" d="M329.5,-1607.87C329.5,-1599.63 329.5,-1590.96 329.5,-1582.47"/>
<polygon fill="black" stroke="black" points="333,-1582.24 329.5,-1572.24 326,-1582.24 333,-1582.24"/>
</g>
<!-- max_pooling2d_1 -->
<g id="node6" class="node"><title>max_pooling2d_1</title>
<polygon fill="#a3a3a3" stroke="none" points="243.5,-1417 243.5,-1440 415.5,-1440 415.5,-1417 243.5,-1417"/>
<polygon fill="none" stroke="black" points="243.5,-1417 243.5,-1440 415.5,-1440 415.5,-1417 243.5,-1417"/>
<text text-anchor="start" x="279.5" y="-1424.8" font-family="Times,serif" font-size="14.00">max_pooling2d_1</text>
<polygon fill="#dddddd" stroke="none" points="243.5,-1394 243.5,-1417 415.5,-1417 415.5,-1394 243.5,-1394"/>
<polygon fill="none" stroke="black" points="243.5,-1394 243.5,-1417 415.5,-1417 415.5,-1394 243.5,-1394"/>
<text text-anchor="start" x="293" y="-1401.8" font-family="Times,serif" font-size="14.00">(1, 32, 14, 6)</text>
<polygon fill="#b0f0ee" stroke="none" points="243.5,-1356 243.5,-1394 319.5,-1394 319.5,-1356 243.5,-1356"/>
<polygon fill="none" stroke="black" points="243.5,-1356 243.5,-1394 319.5,-1394 319.5,-1356 243.5,-1356"/>
<text text-anchor="start" x="252" y="-1378.8" font-family="Times,serif" font-size="14.00"> 0.010752 </text>
<text text-anchor="start" x="247.5" y="-1363.8" font-family="Times,serif" font-size="14.00"> (MFLOPs) </text>
<polygon fill="#f9d6f5" stroke="none" points="319.5,-1356 319.5,-1394 375.5,-1394 375.5,-1356 319.5,-1356"/>
<polygon fill="none" stroke="black" points="319.5,-1356 319.5,-1394 375.5,-1394 375.5,-1356 319.5,-1356"/>
<text text-anchor="start" x="324.5" y="-1378.8" font-family="Times,serif" font-size="14.00"> 136.15 </text>
<text text-anchor="start" x="323.5" y="-1363.8" font-family="Times,serif" font-size="14.00"> (MB/s) </text>
<polygon fill="#ffffba" stroke="none" points="375.5,-1356 375.5,-1394 415.5,-1394 415.5,-1356 375.5,-1356"/>
<polygon fill="none" stroke="black" points="375.5,-1356 375.5,-1394 415.5,-1394 415.5,-1356 375.5,-1356"/>
<text text-anchor="start" x="379.5" y="-1378.8" font-family="Times,serif" font-size="14.00"> 0.15 </text>
<text text-anchor="start" x="380.5" y="-1363.8" font-family="Times,serif" font-size="14.00"> (ms)</text>
</g>
<!-- activation_1&#45;&gt;max_pooling2d_1 -->
<g id="edge4" class="edge"><title>activation_1&#45;&gt;max_pooling2d_1</title>
<path fill="none" stroke="black" d="M329.5,-1479.87C329.5,-1471.63 329.5,-1462.96 329.5,-1454.47"/>
<polygon fill="black" stroke="black" points="333,-1454.24 329.5,-1444.24 326,-1454.24 333,-1454.24"/>
</g>
<!-- conv2d_2 -->
<g id="node7" class="node"><title>conv2d_2</title>
<polygon fill="#a3a3a3" stroke="none" points="243.5,-1289 243.5,-1312 415.5,-1312 415.5,-1289 243.5,-1289"/>
<polygon fill="none" stroke="black" points="243.5,-1289 243.5,-1312 415.5,-1312 415.5,-1289 243.5,-1289"/>
<text text-anchor="start" x="302.5" y="-1296.8" font-family="Times,serif" font-size="14.00">conv2d_2</text>
<polygon fill="#dddddd" stroke="none" points="243.5,-1266 243.5,-1289 415.5,-1289 415.5,-1266 243.5,-1266"/>
<polygon fill="none" stroke="black" points="243.5,-1266 243.5,-1289 415.5,-1289 415.5,-1266 243.5,-1266"/>
<text text-anchor="start" x="293" y="-1273.8" font-family="Times,serif" font-size="14.00">(1, 64, 12, 4)</text>
<polygon fill="#2ed1c6" stroke="none" points="243.5,-1228 243.5,-1266 319.5,-1266 319.5,-1228 243.5,-1228"/>
<polygon fill="none" stroke="black" points="243.5,-1228 243.5,-1266 319.5,-1266 319.5,-1228 243.5,-1228"/>
<text text-anchor="start" x="252" y="-1250.8" font-family="Times,serif" font-size="14.00"> 1.769472 </text>
<text text-anchor="start" x="247.5" y="-1235.8" font-family="Times,serif" font-size="14.00"> (MFLOPs) </text>
<polygon fill="#fad8f6" stroke="none" points="319.5,-1228 319.5,-1266 375.5,-1266 375.5,-1228 319.5,-1228"/>
<polygon fill="none" stroke="black" points="319.5,-1228 319.5,-1266 375.5,-1266 375.5,-1228 319.5,-1228"/>
<text text-anchor="start" x="324.5" y="-1250.8" font-family="Times,serif" font-size="14.00"> 114.61 </text>
<text text-anchor="start" x="323.5" y="-1235.8" font-family="Times,serif" font-size="14.00"> (MB/s) </text>
<polygon fill="#ffffa3" stroke="none" points="375.5,-1228 375.5,-1266 415.5,-1266 415.5,-1228 375.5,-1228"/>
<polygon fill="none" stroke="black" points="375.5,-1228 375.5,-1266 415.5,-1266 415.5,-1228 375.5,-1228"/>
<text text-anchor="start" x="379.5" y="-1250.8" font-family="Times,serif" font-size="14.00"> 0.35 </text>
<text text-anchor="start" x="380.5" y="-1235.8" font-family="Times,serif" font-size="14.00"> (ms)</text>
</g>
<!-- max_pooling2d_1&#45;&gt;conv2d_2 -->
<g id="edge5" class="edge"><title>max_pooling2d_1&#45;&gt;conv2d_2</title>
<path fill="none" stroke="black" d="M329.5,-1351.87C329.5,-1343.63 329.5,-1334.96 329.5,-1326.47"/>
<polygon fill="black" stroke="black" points="333,-1326.24 329.5,-1316.24 326,-1326.24 333,-1326.24"/>
</g>
<!-- activation_2 -->
<g id="node8" class="node"><title>activation_2</title>
<polygon fill="#a3a3a3" stroke="none" points="243.5,-1161 243.5,-1184 415.5,-1184 415.5,-1161 243.5,-1161"/>
<polygon fill="none" stroke="black" points="243.5,-1161 243.5,-1184 415.5,-1184 415.5,-1161 243.5,-1161"/>
<text text-anchor="start" x="296" y="-1168.8" font-family="Times,serif" font-size="14.00">activation_2</text>
<polygon fill="#dddddd" stroke="none" points="243.5,-1138 243.5,-1161 415.5,-1161 415.5,-1138 243.5,-1138"/>
<polygon fill="none" stroke="black" points="243.5,-1138 243.5,-1161 415.5,-1161 415.5,-1138 243.5,-1138"/>
<text text-anchor="start" x="293" y="-1145.8" font-family="Times,serif" font-size="14.00">(1, 64, 12, 4)</text>
<polygon fill="#b0f0ee" stroke="none" points="243.5,-1100 243.5,-1138 319.5,-1138 319.5,-1100 243.5,-1100"/>
<polygon fill="none" stroke="black" points="243.5,-1100 243.5,-1138 319.5,-1138 319.5,-1100 243.5,-1100"/>
<text text-anchor="start" x="252" y="-1122.8" font-family="Times,serif" font-size="14.00"> 0.009216 </text>
<text text-anchor="start" x="247.5" y="-1107.8" font-family="Times,serif" font-size="14.00"> (MFLOPs) </text>
<polygon fill="#fad9f6" stroke="none" points="319.5,-1100 319.5,-1138 375.5,-1138 375.5,-1100 319.5,-1100"/>
<polygon fill="none" stroke="black" points="319.5,-1100 319.5,-1138 375.5,-1138 375.5,-1100 319.5,-1100"/>
<text text-anchor="start" x="324.5" y="-1122.8" font-family="Times,serif" font-size="14.00"> 104.32 </text>
<text text-anchor="start" x="323.5" y="-1107.8" font-family="Times,serif" font-size="14.00"> (MB/s) </text>
<polygon fill="#ffffc5" stroke="none" points="375.5,-1100 375.5,-1138 415.5,-1138 415.5,-1100 375.5,-1100"/>
<polygon fill="none" stroke="black" points="375.5,-1100 375.5,-1138 415.5,-1138 415.5,-1100 375.5,-1100"/>
<text text-anchor="start" x="379.5" y="-1122.8" font-family="Times,serif" font-size="14.00"> 0.06 </text>
<text text-anchor="start" x="380.5" y="-1107.8" font-family="Times,serif" font-size="14.00"> (ms)</text>
</g>
<!-- conv2d_2&#45;&gt;activation_2 -->
<g id="edge6" class="edge"><title>conv2d_2&#45;&gt;activation_2</title>
<path fill="none" stroke="black" d="M329.5,-1223.87C329.5,-1215.63 329.5,-1206.96 329.5,-1198.47"/>
<polygon fill="black" stroke="black" points="333,-1198.24 329.5,-1188.24 326,-1198.24 333,-1198.24"/>
</g>
<!-- max_pooling2d_2 -->
<g id="node9" class="node"><title>max_pooling2d_2</title>
<polygon fill="#a3a3a3" stroke="none" points="243.5,-1033 243.5,-1056 415.5,-1056 415.5,-1033 243.5,-1033"/>
<polygon fill="none" stroke="black" points="243.5,-1033 243.5,-1056 415.5,-1056 415.5,-1033 243.5,-1033"/>
<text text-anchor="start" x="279.5" y="-1040.8" font-family="Times,serif" font-size="14.00">max_pooling2d_2</text>
<polygon fill="#dddddd" stroke="none" points="243.5,-1010 243.5,-1033 415.5,-1033 415.5,-1010 243.5,-1010"/>
<polygon fill="none" stroke="black" points="243.5,-1010 243.5,-1033 415.5,-1033 415.5,-1010 243.5,-1010"/>
<text text-anchor="start" x="296.5" y="-1017.8" font-family="Times,serif" font-size="14.00">(1, 64, 6, 2)</text>
<polygon fill="#b0f0ee" stroke="none" points="243.5,-972 243.5,-1010 319.5,-1010 319.5,-972 243.5,-972"/>
<polygon fill="none" stroke="black" points="243.5,-972 243.5,-1010 319.5,-1010 319.5,-972 243.5,-972"/>
<text text-anchor="start" x="252" y="-994.8" font-family="Times,serif" font-size="14.00"> 0.003072 </text>
<text text-anchor="start" x="247.5" y="-979.8" font-family="Times,serif" font-size="14.00"> (MFLOPs) </text>
<polygon fill="#f8d3f3" stroke="none" points="319.5,-972 319.5,-1010 375.5,-1010 375.5,-972 319.5,-972"/>
<polygon fill="none" stroke="black" points="319.5,-972 319.5,-1010 375.5,-1010 375.5,-972 319.5,-972"/>
<text text-anchor="start" x="324.5" y="-994.8" font-family="Times,serif" font-size="14.00"> 164.55 </text>
<text text-anchor="start" x="323.5" y="-979.8" font-family="Times,serif" font-size="14.00"> (MB/s) </text>
<polygon fill="#ffffc7" stroke="none" points="375.5,-972 375.5,-1010 415.5,-1010 415.5,-972 375.5,-972"/>
<polygon fill="none" stroke="black" points="375.5,-972 375.5,-1010 415.5,-1010 415.5,-972 375.5,-972"/>
<text text-anchor="start" x="379.5" y="-994.8" font-family="Times,serif" font-size="14.00"> 0.04 </text>
<text text-anchor="start" x="380.5" y="-979.8" font-family="Times,serif" font-size="14.00"> (ms)</text>
</g>
<!-- activation_2&#45;&gt;max_pooling2d_2 -->
<g id="edge7" class="edge"><title>activation_2&#45;&gt;max_pooling2d_2</title>
<path fill="none" stroke="black" d="M329.5,-1095.87C329.5,-1087.63 329.5,-1078.96 329.5,-1070.47"/>
<polygon fill="black" stroke="black" points="333,-1070.24 329.5,-1060.24 326,-1070.24 333,-1070.24"/>
</g>
<!-- conv2d_3 -->
<g id="node10" class="node"><title>conv2d_3</title>
<polygon fill="#a3a3a3" stroke="none" points="243.5,-905 243.5,-928 415.5,-928 415.5,-905 243.5,-905"/>
<polygon fill="none" stroke="black" points="243.5,-905 243.5,-928 415.5,-928 415.5,-905 243.5,-905"/>
<text text-anchor="start" x="302.5" y="-912.8" font-family="Times,serif" font-size="14.00">conv2d_3</text>
<polygon fill="#dddddd" stroke="none" points="243.5,-882 243.5,-905 415.5,-905 415.5,-882 243.5,-882"/>
<polygon fill="none" stroke="black" points="243.5,-882 243.5,-905 415.5,-905 415.5,-882 243.5,-882"/>
<text text-anchor="start" x="293" y="-889.8" font-family="Times,serif" font-size="14.00">(1, 128, 5, 1)</text>
<polygon fill="#98ebe7" stroke="none" points="243.5,-844 243.5,-882 319.5,-882 319.5,-844 243.5,-844"/>
<polygon fill="none" stroke="black" points="243.5,-844 243.5,-882 319.5,-882 319.5,-844 243.5,-844"/>
<text text-anchor="start" x="255.5" y="-866.8" font-family="Times,serif" font-size="14.00"> 0.32768 </text>
<text text-anchor="start" x="247.5" y="-851.8" font-family="Times,serif" font-size="14.00"> (MFLOPs) </text>
<polygon fill="#f5cbf0" stroke="none" points="319.5,-844 319.5,-882 375.5,-882 375.5,-844 319.5,-844"/>
<polygon fill="none" stroke="black" points="319.5,-844 319.5,-882 375.5,-882 375.5,-844 319.5,-844"/>
<text text-anchor="start" x="324.5" y="-866.8" font-family="Times,serif" font-size="14.00"> 239.78 </text>
<text text-anchor="start" x="323.5" y="-851.8" font-family="Times,serif" font-size="14.00"> (MB/s) </text>
<polygon fill="#ffffac" stroke="none" points="375.5,-844 375.5,-882 415.5,-882 415.5,-844 375.5,-844"/>
<polygon fill="none" stroke="black" points="375.5,-844 375.5,-882 415.5,-882 415.5,-844 375.5,-844"/>
<text text-anchor="start" x="379.5" y="-866.8" font-family="Times,serif" font-size="14.00"> 0.27 </text>
<text text-anchor="start" x="380.5" y="-851.8" font-family="Times,serif" font-size="14.00"> (ms)</text>
</g>
<!-- max_pooling2d_2&#45;&gt;conv2d_3 -->
<g id="edge8" class="edge"><title>max_pooling2d_2&#45;&gt;conv2d_3</title>
<path fill="none" stroke="black" d="M329.5,-967.867C329.5,-959.634 329.5,-950.957 329.5,-942.465"/>
<polygon fill="black" stroke="black" points="333,-942.241 329.5,-932.241 326,-942.241 333,-942.241"/>
</g>
<!-- activation_3 -->
<g id="node11" class="node"><title>activation_3</title>
<polygon fill="#a3a3a3" stroke="none" points="243.5,-777 243.5,-800 415.5,-800 415.5,-777 243.5,-777"/>
<polygon fill="none" stroke="black" points="243.5,-777 243.5,-800 415.5,-800 415.5,-777 243.5,-777"/>
<text text-anchor="start" x="296" y="-784.8" font-family="Times,serif" font-size="14.00">activation_3</text>
<polygon fill="#dddddd" stroke="none" points="243.5,-754 243.5,-777 415.5,-777 415.5,-754 243.5,-754"/>
<polygon fill="none" stroke="black" points="243.5,-754 243.5,-777 415.5,-777 415.5,-754 243.5,-754"/>
<text text-anchor="start" x="293" y="-761.8" font-family="Times,serif" font-size="14.00">(1, 128, 5, 1)</text>
<polygon fill="#b0f0ee" stroke="none" points="243.5,-716 243.5,-754 319.5,-754 319.5,-716 243.5,-716"/>
<polygon fill="none" stroke="black" points="243.5,-716 243.5,-754 319.5,-754 319.5,-716 243.5,-716"/>
<text text-anchor="start" x="255.5" y="-738.8" font-family="Times,serif" font-size="14.00"> 0.00192 </text>
<text text-anchor="start" x="247.5" y="-723.8" font-family="Times,serif" font-size="14.00"> (MFLOPs) </text>
<polygon fill="#fde2fa" stroke="none" points="319.5,-716 319.5,-754 375.5,-754 375.5,-716 319.5,-716"/>
<polygon fill="none" stroke="black" points="319.5,-716 319.5,-754 375.5,-754 375.5,-716 319.5,-716"/>
<text text-anchor="start" x="328" y="-738.8" font-family="Times,serif" font-size="14.00"> 26.04 </text>
<text text-anchor="start" x="323.5" y="-723.8" font-family="Times,serif" font-size="14.00"> (MB/s) </text>
<polygon fill="#ffffc5" stroke="none" points="375.5,-716 375.5,-754 415.5,-754 415.5,-716 375.5,-716"/>
<polygon fill="none" stroke="black" points="375.5,-716 375.5,-754 415.5,-754 415.5,-716 375.5,-716"/>
<text text-anchor="start" x="379.5" y="-738.8" font-family="Times,serif" font-size="14.00"> 0.06 </text>
<text text-anchor="start" x="380.5" y="-723.8" font-family="Times,serif" font-size="14.00"> (ms)</text>
</g>
<!-- conv2d_3&#45;&gt;activation_3 -->
<g id="edge9" class="edge"><title>conv2d_3&#45;&gt;activation_3</title>
<path fill="none" stroke="black" d="M329.5,-839.867C329.5,-831.634 329.5,-822.957 329.5,-814.465"/>
<polygon fill="black" stroke="black" points="333,-814.241 329.5,-804.241 326,-814.241 333,-814.241"/>
</g>
<!-- flatten_1 -->
<g id="node12" class="node"><title>flatten_1</title>
<polygon fill="#a3a3a3" stroke="none" points="243.5,-649 243.5,-672 415.5,-672 415.5,-649 243.5,-649"/>
<polygon fill="none" stroke="black" points="243.5,-649 243.5,-672 415.5,-672 415.5,-649 243.5,-649"/>
<text text-anchor="start" x="305" y="-656.8" font-family="Times,serif" font-size="14.00">flatten_1</text>
<polygon fill="#dddddd" stroke="none" points="243.5,-626 243.5,-649 415.5,-649 415.5,-626 243.5,-626"/>
<polygon fill="none" stroke="black" points="243.5,-626 243.5,-649 415.5,-649 415.5,-626 243.5,-626"/>
<text text-anchor="start" x="293" y="-633.8" font-family="Times,serif" font-size="14.00">(1, 640, 1, 1)</text>
<polygon fill="#b1f1ef" stroke="none" points="243.5,-588 243.5,-626 319.5,-626 319.5,-588 243.5,-588"/>
<polygon fill="none" stroke="black" points="243.5,-588 243.5,-626 319.5,-626 319.5,-588 243.5,-588"/>
<text text-anchor="start" x="269" y="-610.8" font-family="Times,serif" font-size="14.00"> 0.0 </text>
<text text-anchor="start" x="247.5" y="-595.8" font-family="Times,serif" font-size="14.00"> (MFLOPs) </text>
<polygon fill="#fadaf6" stroke="none" points="319.5,-588 319.5,-626 375.5,-626 375.5,-588 319.5,-588"/>
<polygon fill="none" stroke="black" points="319.5,-588 319.5,-626 375.5,-626 375.5,-588 319.5,-588"/>
<text text-anchor="start" x="324.5" y="-610.8" font-family="Times,serif" font-size="14.00"> 101.26 </text>
<text text-anchor="start" x="323.5" y="-595.8" font-family="Times,serif" font-size="14.00"> (MB/s) </text>
<polygon fill="#ffffc9" stroke="none" points="375.5,-588 375.5,-626 415.5,-626 415.5,-588 375.5,-588"/>
<polygon fill="none" stroke="black" points="375.5,-588 375.5,-626 415.5,-626 415.5,-588 375.5,-588"/>
<text text-anchor="start" x="379.5" y="-610.8" font-family="Times,serif" font-size="14.00"> 0.02 </text>
<text text-anchor="start" x="380.5" y="-595.8" font-family="Times,serif" font-size="14.00"> (ms)</text>
</g>
<!-- activation_3&#45;&gt;flatten_1 -->
<g id="edge10" class="edge"><title>activation_3&#45;&gt;flatten_1</title>
<path fill="none" stroke="black" d="M329.5,-711.867C329.5,-703.634 329.5,-694.957 329.5,-686.465"/>
<polygon fill="black" stroke="black" points="333,-686.241 329.5,-676.241 326,-686.241 333,-686.241"/>
</g>
<!-- dense_1 -->
<g id="node13" class="node"><title>dense_1</title>
<polygon fill="#a3a3a3" stroke="none" points="241.5,-521 241.5,-544 417.5,-544 417.5,-521 241.5,-521"/>
<polygon fill="none" stroke="black" points="241.5,-521 241.5,-544 417.5,-544 417.5,-521 241.5,-521"/>
<text text-anchor="start" x="307" y="-528.8" font-family="Times,serif" font-size="14.00">dense_1</text>
<polygon fill="#dddddd" stroke="none" points="241.5,-498 241.5,-521 417.5,-521 417.5,-498 241.5,-498"/>
<polygon fill="none" stroke="black" points="241.5,-498 241.5,-521 417.5,-521 417.5,-498 241.5,-498"/>
<text text-anchor="start" x="293" y="-505.8" font-family="Times,serif" font-size="14.00">(1, 256, 1, 1)</text>
<polygon fill="#98ebe7" stroke="none" points="241.5,-460 241.5,-498 317.5,-498 317.5,-460 241.5,-460"/>
<polygon fill="none" stroke="black" points="241.5,-460 241.5,-498 317.5,-498 317.5,-460 241.5,-460"/>
<text text-anchor="start" x="253.5" y="-482.8" font-family="Times,serif" font-size="14.00"> 0.32768 </text>
<text text-anchor="start" x="245.5" y="-467.8" font-family="Times,serif" font-size="14.00"> (MFLOPs) </text>
<polygon fill="#b1179d" stroke="none" points="317.5,-460 317.5,-498 377.5,-498 377.5,-460 317.5,-460"/>
<polygon fill="none" stroke="black" points="317.5,-460 317.5,-498 377.5,-498 377.5,-460 317.5,-460"/>
<text text-anchor="start" x="321.5" y="-482.8" font-family="Times,serif" font-size="14.00"> 1902.30 </text>
<text text-anchor="start" x="323.5" y="-467.8" font-family="Times,serif" font-size="14.00"> (MB/s) </text>
<polygon fill="#ffffb9" stroke="none" points="377.5,-460 377.5,-498 417.5,-498 417.5,-460 377.5,-460"/>
<polygon fill="none" stroke="black" points="377.5,-460 377.5,-498 417.5,-498 417.5,-460 377.5,-460"/>
<text text-anchor="start" x="381.5" y="-482.8" font-family="Times,serif" font-size="14.00"> 0.16 </text>
<text text-anchor="start" x="382.5" y="-467.8" font-family="Times,serif" font-size="14.00"> (ms)</text>
</g>
<!-- flatten_1&#45;&gt;dense_1 -->
<g id="edge11" class="edge"><title>flatten_1&#45;&gt;dense_1</title>
<path fill="none" stroke="black" d="M329.5,-583.867C329.5,-575.634 329.5,-566.957 329.5,-558.465"/>
<polygon fill="black" stroke="black" points="333,-558.241 329.5,-548.241 326,-558.241 333,-558.241"/>
</g>
<!-- relu2 -->
<g id="node14" class="node"><title>relu2</title>
<polygon fill="#a3a3a3" stroke="none" points="243.5,-393 243.5,-416 415.5,-416 415.5,-393 243.5,-393"/>
<polygon fill="none" stroke="black" points="243.5,-393 243.5,-416 415.5,-416 415.5,-393 243.5,-393"/>
<text text-anchor="start" x="315.5" y="-400.8" font-family="Times,serif" font-size="14.00">relu2</text>
<polygon fill="#dddddd" stroke="none" points="243.5,-370 243.5,-393 415.5,-393 415.5,-370 243.5,-370"/>
<polygon fill="none" stroke="black" points="243.5,-370 243.5,-393 415.5,-393 415.5,-370 243.5,-370"/>
<text text-anchor="start" x="293" y="-377.8" font-family="Times,serif" font-size="14.00">(1, 256, 1, 1)</text>
<polygon fill="#b0f0ee" stroke="none" points="243.5,-332 243.5,-370 319.5,-370 319.5,-332 243.5,-332"/>
<polygon fill="none" stroke="black" points="243.5,-332 243.5,-370 319.5,-370 319.5,-332 243.5,-332"/>
<text text-anchor="start" x="252" y="-354.8" font-family="Times,serif" font-size="14.00"> 0.000768 </text>
<text text-anchor="start" x="247.5" y="-339.8" font-family="Times,serif" font-size="14.00"> (MFLOPs) </text>
<polygon fill="#fee3fb" stroke="none" points="319.5,-332 319.5,-370 375.5,-370 375.5,-332 319.5,-332"/>
<polygon fill="none" stroke="black" points="319.5,-332 319.5,-370 375.5,-370 375.5,-332 319.5,-332"/>
<text text-anchor="start" x="328" y="-354.8" font-family="Times,serif" font-size="14.00"> 17.34 </text>
<text text-anchor="start" x="323.5" y="-339.8" font-family="Times,serif" font-size="14.00"> (MB/s) </text>
<polygon fill="#ffffc5" stroke="none" points="375.5,-332 375.5,-370 415.5,-370 415.5,-332 375.5,-332"/>
<polygon fill="none" stroke="black" points="375.5,-332 375.5,-370 415.5,-370 415.5,-332 375.5,-332"/>
<text text-anchor="start" x="379.5" y="-354.8" font-family="Times,serif" font-size="14.00"> 0.06 </text>
<text text-anchor="start" x="380.5" y="-339.8" font-family="Times,serif" font-size="14.00"> (ms)</text>
</g>
<!-- dense_1&#45;&gt;relu2 -->
<g id="edge12" class="edge"><title>dense_1&#45;&gt;relu2</title>
<path fill="none" stroke="black" d="M329.5,-455.867C329.5,-447.634 329.5,-438.957 329.5,-430.465"/>
<polygon fill="black" stroke="black" points="333,-430.241 329.5,-420.241 326,-430.241 333,-430.241"/>
</g>
<!-- dense2 -->
<g id="node15" class="node"><title>dense2</title>
<polygon fill="#a3a3a3" stroke="none" points="243.5,-265 243.5,-288 415.5,-288 415.5,-265 243.5,-265"/>
<polygon fill="none" stroke="black" points="243.5,-265 243.5,-288 415.5,-288 415.5,-265 243.5,-265"/>
<text text-anchor="start" x="310.5" y="-272.8" font-family="Times,serif" font-size="14.00">dense2</text>
<polygon fill="#dddddd" stroke="none" points="243.5,-242 243.5,-265 415.5,-265 415.5,-242 243.5,-242"/>
<polygon fill="none" stroke="black" points="243.5,-242 243.5,-265 415.5,-265 415.5,-242 243.5,-242"/>
<text text-anchor="start" x="296.5" y="-249.8" font-family="Times,serif" font-size="14.00">(1, 65, 1, 1)</text>
<polygon fill="#aef0ee" stroke="none" points="243.5,-204 243.5,-242 319.5,-242 319.5,-204 243.5,-204"/>
<polygon fill="none" stroke="black" points="243.5,-204 243.5,-242 319.5,-242 319.5,-204 243.5,-204"/>
<text text-anchor="start" x="255.5" y="-226.8" font-family="Times,serif" font-size="14.00"> 0.03328 </text>
<text text-anchor="start" x="247.5" y="-211.8" font-family="Times,serif" font-size="14.00"> (MFLOPs) </text>
<polygon fill="#e49edb" stroke="none" points="319.5,-204 319.5,-242 375.5,-242 375.5,-204 319.5,-204"/>
<polygon fill="none" stroke="black" points="319.5,-204 319.5,-242 375.5,-242 375.5,-204 319.5,-204"/>
<text text-anchor="start" x="324.5" y="-226.8" font-family="Times,serif" font-size="14.00"> 651.40 </text>
<text text-anchor="start" x="323.5" y="-211.8" font-family="Times,serif" font-size="14.00"> (MB/s) </text>
<polygon fill="#ffffc6" stroke="none" points="375.5,-204 375.5,-242 415.5,-242 415.5,-204 375.5,-204"/>
<polygon fill="none" stroke="black" points="375.5,-204 375.5,-242 415.5,-242 415.5,-204 375.5,-204"/>
<text text-anchor="start" x="379.5" y="-226.8" font-family="Times,serif" font-size="14.00"> 0.05 </text>
<text text-anchor="start" x="380.5" y="-211.8" font-family="Times,serif" font-size="14.00"> (ms)</text>
</g>
<!-- relu2&#45;&gt;dense2 -->
<g id="edge13" class="edge"><title>relu2&#45;&gt;dense2</title>
<path fill="none" stroke="black" d="M329.5,-327.867C329.5,-319.634 329.5,-310.957 329.5,-302.465"/>
<polygon fill="black" stroke="black" points="333,-302.241 329.5,-292.241 326,-302.241 333,-302.241"/>
</g>
<!-- prob -->
<g id="node16" class="node"><title>prob</title>
<polygon fill="#a3a3a3" stroke="none" points="243.5,-137 243.5,-160 415.5,-160 415.5,-137 243.5,-137"/>
<polygon fill="none" stroke="black" points="243.5,-137 243.5,-160 415.5,-160 415.5,-137 243.5,-137"/>
<text text-anchor="start" x="317" y="-144.8" font-family="Times,serif" font-size="14.00">prob</text>
<polygon fill="#dddddd" stroke="none" points="243.5,-114 243.5,-137 415.5,-137 415.5,-114 243.5,-114"/>
<polygon fill="none" stroke="black" points="243.5,-114 243.5,-137 415.5,-137 415.5,-114 243.5,-114"/>
<text text-anchor="start" x="296.5" y="-121.8" font-family="Times,serif" font-size="14.00">(1, 65, 1, 1)</text>
<polygon fill="#b0f0ee" stroke="none" points="243.5,-76 243.5,-114 319.5,-114 319.5,-76 243.5,-76"/>
<polygon fill="none" stroke="black" points="243.5,-76 243.5,-114 319.5,-114 319.5,-76 243.5,-76"/>
<text text-anchor="start" x="252" y="-98.8" font-family="Times,serif" font-size="14.00"> 0.000195 </text>
<text text-anchor="start" x="247.5" y="-83.8" font-family="Times,serif" font-size="14.00"> (MFLOPs) </text>
<polygon fill="#fee4fb" stroke="none" points="319.5,-76 319.5,-114 375.5,-114 375.5,-76 319.5,-76"/>
<polygon fill="none" stroke="black" points="319.5,-76 319.5,-114 375.5,-114 375.5,-76 319.5,-76"/>
<text text-anchor="start" x="331.5" y="-98.8" font-family="Times,serif" font-size="14.00"> 4.78 </text>
<text text-anchor="start" x="323.5" y="-83.8" font-family="Times,serif" font-size="14.00"> (MB/s) </text>
<polygon fill="#ffffc6" stroke="none" points="375.5,-76 375.5,-114 415.5,-114 415.5,-76 375.5,-76"/>
<polygon fill="none" stroke="black" points="375.5,-76 375.5,-114 415.5,-114 415.5,-76 375.5,-76"/>
<text text-anchor="start" x="379.5" y="-98.8" font-family="Times,serif" font-size="14.00"> 0.05 </text>
<text text-anchor="start" x="380.5" y="-83.8" font-family="Times,serif" font-size="14.00"> (ms)</text>
</g>
<!-- dense2&#45;&gt;prob -->
<g id="edge14" class="edge"><title>dense2&#45;&gt;prob</title>
<path fill="none" stroke="black" d="M329.5,-199.867C329.5,-191.634 329.5,-182.957 329.5,-174.465"/>
<polygon fill="black" stroke="black" points="333,-174.241 329.5,-164.241 326,-174.241 333,-174.241"/>
</g>
<!-- Output -->
<g id="node17" class="node"><title>Output</title>
<text text-anchor="middle" x="329.5" y="-14.3" font-family="Times,serif" font-size="14.00">output: [(1, 65, 1, 1)]</text>
</g>
<!-- prob&#45;&gt;Output -->
<g id="edge15" class="edge"><title>prob&#45;&gt;Output</title>
<path fill="none" stroke="black" d="M329.5,-71.7292C329.5,-63.0404 329.5,-54.1943 329.5,-46.2922"/>
<polygon fill="black" stroke="black" points="333,-46.2052 329.5,-36.2053 326,-46.2053 333,-46.2052"/>
</g>
<!-- Summary -->
<g id="node18" class="node"><title>Summary</title>
<polygon fill="#c60000" stroke="none" points="450.5,-1903.5 450.5,-1926.5 635.5,-1926.5 635.5,-1903.5 450.5,-1903.5"/>
<polygon fill="none" stroke="black" points="450.5,-1903.5 450.5,-1926.5 635.5,-1926.5 635.5,-1903.5 450.5,-1903.5"/>
<text text-anchor="start" x="515.5" y="-1911.3" font-family="Times,serif" font-size="14.00">Summary</text>
<polygon fill="#e2e2e2" stroke="none" points="450.5,-1880.5 450.5,-1903.5 635.5,-1903.5 635.5,-1880.5 450.5,-1880.5"/>
<polygon fill="none" stroke="black" points="450.5,-1880.5 450.5,-1903.5 635.5,-1903.5 635.5,-1880.5 450.5,-1880.5"/>
<text text-anchor="start" x="490" y="-1888.3" font-family="Times,serif" font-size="14.00">12 SHV Processors</text>
<polygon fill="#dadada" stroke="none" points="450.5,-1857.5 450.5,-1880.5 635.5,-1880.5 635.5,-1857.5 450.5,-1857.5"/>
<polygon fill="none" stroke="black" points="450.5,-1857.5 450.5,-1880.5 635.5,-1880.5 635.5,-1857.5 450.5,-1857.5"/>
<text text-anchor="start" x="479" y="-1865.3" font-family="Times,serif" font-size="14.00">Inference time 3.08 ms</text>
<polygon fill="#e2e2e2" stroke="none" points="450.5,-1834.5 450.5,-1857.5 635.5,-1857.5 635.5,-1834.5 450.5,-1834.5"/>
<polygon fill="none" stroke="black" points="450.5,-1834.5 450.5,-1857.5 635.5,-1857.5 635.5,-1834.5 450.5,-1834.5"/>
<text text-anchor="start" x="476" y="-1842.3" font-family="Times,serif" font-size="14.00">Bandwidth 1.18 MB/sec</text>
<polygon fill="#dadada" stroke="none" points="450.5,-1811.5 450.5,-1834.5 635.5,-1834.5 635.5,-1811.5 450.5,-1811.5"/>
<polygon fill="none" stroke="black" points="450.5,-1811.5 450.5,-1834.5 635.5,-1834.5 635.5,-1811.5 450.5,-1811.5"/>
<text text-anchor="start" x="454.5" y="-1819.3" font-family="Times,serif" font-size="14.00">This network is Compute bound</text>
</g>
</g>
</svg>
