<?xml version="1.0" encoding="UTF-8" standalone="no"?>
<!DOCTYPE svg PUBLIC "-//W3C//DTD SVG 1.1//EN"
 "http://www.w3.org/Graphics/SVG/1.1/DTD/svg11.dtd">
<!-- Generated by graphviz version 2.38.0 (20140413.2041)
 -->
<!-- Title: output Pages: 1 -->
<svg width="1194pt" height="1099pt"
 viewBox="0.00 0.00 1193.50 1099.00" xmlns="http://www.w3.org/2000/svg" xmlns:xlink="http://www.w3.org/1999/xlink">
<g id="graph0" class="graph" transform="scale(1 1) rotate(0) translate(4 1095)">
<title>output</title>
<polygon fill="white" stroke="none" points="-4,4 -4,-1095 1189.5,-1095 1189.5,4 -4,4"/>
<!-- Legend -->
<g id="node1" class="node"><title>Legend</title>
<polygon fill="#e0e0e0" stroke="none" points="8.5,-1036.5 8.5,-1059.5 209.5,-1059.5 209.5,-1036.5 8.5,-1036.5"/>
<polygon fill="none" stroke="black" points="8.5,-1036.5 8.5,-1059.5 209.5,-1059.5 209.5,-1036.5 8.5,-1036.5"/>
<text text-anchor="start" x="93" y="-1044.3" font-family="Times,serif" font-size="14.00">Layer</text>
<polygon fill="#88ffff" stroke="none" points="8.5,-998.5 8.5,-1036.5 89.5,-1036.5 89.5,-998.5 8.5,-998.5"/>
<polygon fill="none" stroke="black" points="8.5,-998.5 8.5,-1036.5 89.5,-1036.5 89.5,-998.5 8.5,-998.5"/>
<text text-anchor="start" x="12.5" y="-1021.3" font-family="Times,serif" font-size="14.00"> Complexity </text>
<text text-anchor="start" x="15" y="-1006.3" font-family="Times,serif" font-size="14.00"> (MFLOPs) </text>
<polygon fill="#ff88ff" stroke="none" points="89.5,-998.5 89.5,-1036.5 164.5,-1036.5 164.5,-998.5 89.5,-998.5"/>
<polygon fill="none" stroke="black" points="89.5,-998.5 89.5,-1036.5 164.5,-1036.5 164.5,-998.5 89.5,-998.5"/>
<text text-anchor="start" x="93.5" y="-1021.3" font-family="Times,serif" font-size="14.00"> Bandwidth </text>
<text text-anchor="start" x="103" y="-1006.3" font-family="Times,serif" font-size="14.00"> (MB/s) </text>
<polygon fill="#ffff88" stroke="none" points="164.5,-998.5 164.5,-1036.5 209.5,-1036.5 209.5,-998.5 164.5,-998.5"/>
<polygon fill="none" stroke="black" points="164.5,-998.5 164.5,-1036.5 209.5,-1036.5 209.5,-998.5 164.5,-998.5"/>
<text text-anchor="start" x="168.5" y="-1021.3" font-family="Times,serif" font-size="14.00"> Time </text>
<text text-anchor="start" x="172" y="-1006.3" font-family="Times,serif" font-size="14.00"> (ms)</text>
</g>
<!-- input -->
<g id="node2" class="node"><title>input</title>
<polygon fill="#a3a3a3" stroke="none" points="243.5,-1048.5 243.5,-1071.5 415.5,-1071.5 415.5,-1048.5 243.5,-1048.5"/>
<polygon fill="none" stroke="black" points="243.5,-1048.5 243.5,-1071.5 415.5,-1071.5 415.5,-1048.5 243.5,-1048.5"/>
<text text-anchor="start" x="315.5" y="-1056.3" font-family="Times,serif" font-size="14.00">input</text>
<polygon fill="#dddddd" stroke="none" points="243.5,-1025.5 243.5,-1048.5 415.5,-1048.5 415.5,-1025.5 243.5,-1025.5"/>
<polygon fill="none" stroke="black" points="243.5,-1025.5 243.5,-1048.5 415.5,-1048.5 415.5,-1025.5 243.5,-1025.5"/>
<text text-anchor="start" x="293" y="-1033.3" font-family="Times,serif" font-size="14.00">(1, 3, 16, 66)</text>
<polygon fill="#b1f1ef" stroke="none" points="243.5,-987.5 243.5,-1025.5 319.5,-1025.5 319.5,-987.5 243.5,-987.5"/>
<polygon fill="none" stroke="black" points="243.5,-987.5 243.5,-1025.5 319.5,-1025.5 319.5,-987.5 243.5,-987.5"/>
<text text-anchor="start" x="269" y="-1010.3" font-family="Times,serif" font-size="14.00"> 0.0 </text>
<text text-anchor="start" x="247.5" y="-995.3" font-family="Times,serif" font-size="14.00"> (MFLOPs) </text>
<polygon fill="#ffe5fc" stroke="none" points="319.5,-987.5 319.5,-1025.5 375.5,-1025.5 375.5,-987.5 319.5,-987.5"/>
<polygon fill="none" stroke="black" points="319.5,-987.5 319.5,-1025.5 375.5,-1025.5 375.5,-987.5 319.5,-987.5"/>
<text text-anchor="start" x="331.5" y="-1010.3" font-family="Times,serif" font-size="14.00"> 0.00 </text>
<text text-anchor="start" x="323.5" y="-995.3" font-family="Times,serif" font-size="14.00"> (MB/s) </text>
<polygon fill="#ffffcc" stroke="none" points="375.5,-987.5 375.5,-1025.5 415.5,-1025.5 415.5,-987.5 375.5,-987.5"/>
<polygon fill="none" stroke="black" points="375.5,-987.5 375.5,-1025.5 415.5,-1025.5 415.5,-987.5 375.5,-987.5"/>
<text text-anchor="start" x="379.5" y="-1010.3" font-family="Times,serif" font-size="14.00"> 0.00 </text>
<text text-anchor="start" x="380.5" y="-995.3" font-family="Times,serif" font-size="14.00"> (ms)</text>
</g>
<!-- data -->
<g id="node3" class="node"><title>data</title>
<ellipse fill="none" stroke="black" cx="329.5" cy="-914" rx="27" ry="18"/>
<text text-anchor="middle" x="329.5" y="-910.3" font-family="Times,serif" font-size="14.00">data</text>
</g>
<!-- input&#45;&gt;data -->
<g id="edge1" class="edge"><title>input&#45;&gt;data</title>
<path fill="none" stroke="black" d="M329.5,-983.316C329.5,-969.354 329.5,-954.417 329.5,-942.082"/>
<polygon fill="black" stroke="black" points="333,-942.002 329.5,-932.002 326,-942.002 333,-942.002"/>
</g>
<!-- conv1 -->
<g id="node4" class="node"><title>conv1</title>
<polygon fill="#a3a3a3" stroke="none" points="243.5,-833 243.5,-856 415.5,-856 415.5,-833 243.5,-833"/>
<polygon fill="none" stroke="black" points="243.5,-833 243.5,-856 415.5,-856 415.5,-833 243.5,-833"/>
<text text-anchor="start" x="312.5" y="-840.8" font-family="Times,serif" font-size="14.00">conv1</text>
<polygon fill="#dddddd" stroke="none" points="243.5,-810 243.5,-833 415.5,-833 415.5,-810 243.5,-810"/>
<polygon fill="none" stroke="black" points="243.5,-810 243.5,-833 415.5,-833 415.5,-810 243.5,-810"/>
<text text-anchor="start" x="290" y="-817.8" font-family="Times,serif" font-size="14.00">(1, 10, 14, 64)</text>
<polygon fill="#5fddd5" stroke="none" points="243.5,-772 243.5,-810 319.5,-810 319.5,-772 243.5,-772"/>
<polygon fill="none" stroke="black" points="243.5,-772 243.5,-810 319.5,-810 319.5,-772 243.5,-772"/>
<text text-anchor="start" x="255.5" y="-794.8" font-family="Times,serif" font-size="14.00"> 0.48384 </text>
<text text-anchor="start" x="247.5" y="-779.8" font-family="Times,serif" font-size="14.00"> (MFLOPs) </text>
<polygon fill="#fde1fa" stroke="none" points="319.5,-772 319.5,-810 375.5,-810 375.5,-772 319.5,-772"/>
<polygon fill="none" stroke="black" points="319.5,-772 319.5,-810 375.5,-810 375.5,-772 319.5,-772"/>
<text text-anchor="start" x="331.5" y="-794.8" font-family="Times,serif" font-size="14.00"> 4.43 </text>
<text text-anchor="start" x="323.5" y="-779.8" font-family="Times,serif" font-size="14.00"> (MB/s) </text>
<polygon fill="#ffff00" stroke="none" points="375.5,-772 375.5,-810 415.5,-810 415.5,-772 375.5,-772"/>
<polygon fill="none" stroke="black" points="375.5,-772 375.5,-810 415.5,-810 415.5,-772 375.5,-772"/>
<text text-anchor="start" x="379.5" y="-794.8" font-family="Times,serif" font-size="14.00"> 1.49 </text>
<text text-anchor="start" x="380.5" y="-779.8" font-family="Times,serif" font-size="14.00"> (ms)</text>
</g>
<!-- data&#45;&gt;conv1 -->
<g id="edge2" class="edge"><title>data&#45;&gt;conv1</title>
<path fill="none" stroke="black" d="M329.5,-895.93C329.5,-888.6 329.5,-879.582 329.5,-870.257"/>
<polygon fill="black" stroke="black" points="333,-870.083 329.5,-860.083 326,-870.083 333,-870.083"/>
</g>
<!-- relu1 -->
<g id="node5" class="node"><title>relu1</title>
<polygon fill="#a3a3a3" stroke="none" points="243.5,-705 243.5,-728 415.5,-728 415.5,-705 243.5,-705"/>
<polygon fill="none" stroke="black" points="243.5,-705 243.5,-728 415.5,-728 415.5,-705 243.5,-705"/>
<text text-anchor="start" x="315.5" y="-712.8" font-family="Times,serif" font-size="14.00">relu1</text>
<polygon fill="#dddddd" stroke="none" points="243.5,-682 243.5,-705 415.5,-705 415.5,-682 243.5,-682"/>
<polygon fill="none" stroke="black" points="243.5,-682 243.5,-705 415.5,-705 415.5,-682 243.5,-682"/>
<text text-anchor="start" x="290" y="-689.8" font-family="Times,serif" font-size="14.00">(1, 10, 14, 64)</text>
<polygon fill="#acefed" stroke="none" points="243.5,-644 243.5,-682 319.5,-682 319.5,-644 243.5,-644"/>
<polygon fill="none" stroke="black" points="243.5,-644 243.5,-682 319.5,-682 319.5,-644 243.5,-644"/>
<text text-anchor="start" x="255.5" y="-666.8" font-family="Times,serif" font-size="14.00"> 0.02688 </text>
<text text-anchor="start" x="247.5" y="-651.8" font-family="Times,serif" font-size="14.00"> (MFLOPs) </text>
<polygon fill="#b2189e" stroke="none" points="319.5,-644 319.5,-682 375.5,-682 375.5,-644 319.5,-644"/>
<polygon fill="none" stroke="black" points="319.5,-644 319.5,-682 375.5,-682 375.5,-644 319.5,-644"/>
<text text-anchor="start" x="324.5" y="-666.8" font-family="Times,serif" font-size="14.00"> 284.76 </text>
<text text-anchor="start" x="323.5" y="-651.8" font-family="Times,serif" font-size="14.00"> (MB/s) </text>
<polygon fill="#ffffc3" stroke="none" points="375.5,-644 375.5,-682 415.5,-682 415.5,-644 375.5,-644"/>
<polygon fill="none" stroke="black" points="375.5,-644 375.5,-682 415.5,-682 415.5,-644 375.5,-644"/>
<text text-anchor="start" x="379.5" y="-666.8" font-family="Times,serif" font-size="14.00"> 0.06 </text>
<text text-anchor="start" x="380.5" y="-651.8" font-family="Times,serif" font-size="14.00"> (ms)</text>
</g>
<!-- conv1&#45;&gt;relu1 -->
<g id="edge4" class="edge"><title>conv1&#45;&gt;relu1</title>
<path fill="none" stroke="black" d="M322.997,-767.867C322.764,-759.634 322.696,-750.957 322.793,-742.465"/>
<polygon fill="black" stroke="black" points="326.297,-742.308 322.994,-732.241 319.298,-742.171 326.297,-742.308"/>
</g>
<!-- max_pooling2d_3 -->
<g id="node6" class="node"><title>max_pooling2d_3</title>
<polygon fill="#a3a3a3" stroke="none" points="449.5,-705 449.5,-728 621.5,-728 621.5,-705 449.5,-705"/>
<polygon fill="none" stroke="black" points="449.5,-705 449.5,-728 621.5,-728 621.5,-705 449.5,-705"/>
<text text-anchor="start" x="485.5" y="-712.8" font-family="Times,serif" font-size="14.00">max_pooling2d_3</text>
<polygon fill="#dddddd" stroke="none" points="449.5,-682 449.5,-705 621.5,-705 621.5,-682 449.5,-682"/>
<polygon fill="none" stroke="black" points="449.5,-682 449.5,-705 621.5,-705 621.5,-682 449.5,-682"/>
<text text-anchor="start" x="499" y="-689.8" font-family="Times,serif" font-size="14.00">(1, 10, 7, 32)</text>
<polygon fill="#aff0ee" stroke="none" points="449.5,-644 449.5,-682 525.5,-682 525.5,-644 449.5,-644"/>
<polygon fill="none" stroke="black" points="449.5,-644 449.5,-682 525.5,-682 525.5,-644 449.5,-644"/>
<text text-anchor="start" x="461.5" y="-666.8" font-family="Times,serif" font-size="14.00"> 0.00896 </text>
<text text-anchor="start" x="453.5" y="-651.8" font-family="Times,serif" font-size="14.00"> (MFLOPs) </text>
<polygon fill="#bd37ac" stroke="none" points="525.5,-644 525.5,-682 581.5,-682 581.5,-644 525.5,-644"/>
<polygon fill="none" stroke="black" points="525.5,-644 525.5,-682 581.5,-682 581.5,-644 525.5,-644"/>
<text text-anchor="start" x="530.5" y="-666.8" font-family="Times,serif" font-size="14.00"> 240.78 </text>
<text text-anchor="start" x="529.5" y="-651.8" font-family="Times,serif" font-size="14.00"> (MB/s) </text>
<polygon fill="#ffffc2" stroke="none" points="581.5,-644 581.5,-682 621.5,-682 621.5,-644 581.5,-644"/>
<polygon fill="none" stroke="black" points="581.5,-644 581.5,-682 621.5,-682 621.5,-644 581.5,-644"/>
<text text-anchor="start" x="585.5" y="-666.8" font-family="Times,serif" font-size="14.00"> 0.07 </text>
<text text-anchor="start" x="586.5" y="-651.8" font-family="Times,serif" font-size="14.00"> (ms)</text>
</g>
<!-- conv1&#45;&gt;max_pooling2d_3 -->
<g id="edge5" class="edge"><title>conv1&#45;&gt;max_pooling2d_3</title>
<path fill="none" stroke="black" d="M403.289,-767.867C419.51,-757.945 436.785,-747.379 453.314,-737.269"/>
<polygon fill="black" stroke="black" points="455.176,-740.233 461.88,-732.03 451.523,-734.262 455.176,-740.233"/>
</g>
<!-- relu1&#45;&gt;conv1 -->
<g id="edge3" class="edge"><title>relu1&#45;&gt;conv1</title>
<path fill="none" stroke="black" d="M336.006,-732.241C336.238,-740.478 336.305,-749.156 336.206,-757.647"/>
<polygon fill="black" stroke="black" points="332.702,-757.799 336.003,-767.867 339.701,-757.938 332.702,-757.799"/>
</g>
<!-- conv2 -->
<g id="node7" class="node"><title>conv2</title>
<polygon fill="#a3a3a3" stroke="none" points="449.5,-577 449.5,-600 621.5,-600 621.5,-577 449.5,-577"/>
<polygon fill="none" stroke="black" points="449.5,-577 449.5,-600 621.5,-600 621.5,-577 449.5,-577"/>
<text text-anchor="start" x="518.5" y="-584.8" font-family="Times,serif" font-size="14.00">conv2</text>
<polygon fill="#dddddd" stroke="none" points="449.5,-554 449.5,-577 621.5,-577 621.5,-554 449.5,-554"/>
<polygon fill="none" stroke="black" points="449.5,-554 449.5,-577 621.5,-577 621.5,-554 449.5,-554"/>
<text text-anchor="start" x="499" y="-561.8" font-family="Times,serif" font-size="14.00">(1, 16, 5, 30)</text>
<polygon fill="#67dfd8" stroke="none" points="449.5,-516 449.5,-554 525.5,-554 525.5,-516 449.5,-516"/>
<polygon fill="none" stroke="black" points="449.5,-516 449.5,-554 525.5,-554 525.5,-516 449.5,-516"/>
<text text-anchor="start" x="468" y="-538.8" font-family="Times,serif" font-size="14.00"> 0.432 </text>
<text text-anchor="start" x="453.5" y="-523.8" font-family="Times,serif" font-size="14.00"> (MFLOPs) </text>
<polygon fill="#fcdff9" stroke="none" points="525.5,-516 525.5,-554 581.5,-554 581.5,-516 525.5,-516"/>
<polygon fill="none" stroke="black" points="525.5,-516 525.5,-554 581.5,-554 581.5,-516 525.5,-516"/>
<text text-anchor="start" x="537.5" y="-538.8" font-family="Times,serif" font-size="14.00"> 8.17 </text>
<text text-anchor="start" x="529.5" y="-523.8" font-family="Times,serif" font-size="14.00"> (MB/s) </text>
<polygon fill="#ffff55" stroke="none" points="581.5,-516 581.5,-554 621.5,-554 621.5,-516 581.5,-516"/>
<polygon fill="none" stroke="black" points="581.5,-516 581.5,-554 621.5,-554 621.5,-516 581.5,-516"/>
<text text-anchor="start" x="585.5" y="-538.8" font-family="Times,serif" font-size="14.00"> 0.86 </text>
<text text-anchor="start" x="586.5" y="-523.8" font-family="Times,serif" font-size="14.00"> (ms)</text>
</g>
<!-- max_pooling2d_3&#45;&gt;conv2 -->
<g id="edge6" class="edge"><title>max_pooling2d_3&#45;&gt;conv2</title>
<path fill="none" stroke="black" d="M535.5,-639.867C535.5,-631.634 535.5,-622.957 535.5,-614.465"/>
<polygon fill="black" stroke="black" points="539,-614.241 535.5,-604.241 532,-614.241 539,-614.241"/>
</g>
<!-- relu2 -->
<g id="node8" class="node"><title>relu2</title>
<polygon fill="#a3a3a3" stroke="none" points="449.5,-449 449.5,-472 621.5,-472 621.5,-449 449.5,-449"/>
<polygon fill="none" stroke="black" points="449.5,-449 449.5,-472 621.5,-472 621.5,-449 449.5,-449"/>
<text text-anchor="start" x="521.5" y="-456.8" font-family="Times,serif" font-size="14.00">relu2</text>
<polygon fill="#dddddd" stroke="none" points="449.5,-426 449.5,-449 621.5,-449 621.5,-426 449.5,-426"/>
<polygon fill="none" stroke="black" points="449.5,-426 449.5,-449 621.5,-449 621.5,-426 449.5,-426"/>
<text text-anchor="start" x="499" y="-433.8" font-family="Times,serif" font-size="14.00">(1, 16, 5, 30)</text>
<polygon fill="#aff0ee" stroke="none" points="449.5,-388 449.5,-426 525.5,-426 525.5,-388 449.5,-388"/>
<polygon fill="none" stroke="black" points="449.5,-388 449.5,-426 525.5,-426 525.5,-388 449.5,-388"/>
<text text-anchor="start" x="464.5" y="-410.8" font-family="Times,serif" font-size="14.00"> 0.0072 </text>
<text text-anchor="start" x="453.5" y="-395.8" font-family="Times,serif" font-size="14.00"> (MFLOPs) </text>
<polygon fill="#eaade2" stroke="none" points="525.5,-388 525.5,-426 581.5,-426 581.5,-388 525.5,-388"/>
<polygon fill="none" stroke="black" points="525.5,-388 525.5,-426 581.5,-426 581.5,-388 525.5,-388"/>
<text text-anchor="start" x="534" y="-410.8" font-family="Times,serif" font-size="14.00"> 76.90 </text>
<text text-anchor="start" x="529.5" y="-395.8" font-family="Times,serif" font-size="14.00"> (MB/s) </text>
<polygon fill="#ffffc3" stroke="none" points="581.5,-388 581.5,-426 621.5,-426 621.5,-388 581.5,-388"/>
<polygon fill="none" stroke="black" points="581.5,-388 581.5,-426 621.5,-426 621.5,-388 581.5,-388"/>
<text text-anchor="start" x="585.5" y="-410.8" font-family="Times,serif" font-size="14.00"> 0.06 </text>
<text text-anchor="start" x="586.5" y="-395.8" font-family="Times,serif" font-size="14.00"> (ms)</text>
</g>
<!-- conv2&#45;&gt;relu2 -->
<g id="edge8" class="edge"><title>conv2&#45;&gt;relu2</title>
<path fill="none" stroke="black" d="M528.997,-511.867C528.764,-503.634 528.696,-494.957 528.793,-486.465"/>
<polygon fill="black" stroke="black" points="532.297,-486.308 528.994,-476.241 525.298,-486.171 532.297,-486.308"/>
</g>
<!-- conv3 -->
<g id="node9" class="node"><title>conv3</title>
<polygon fill="#a3a3a3" stroke="none" points="655.5,-449 655.5,-472 827.5,-472 827.5,-449 655.5,-449"/>
<polygon fill="none" stroke="black" points="655.5,-449 655.5,-472 827.5,-472 827.5,-449 655.5,-449"/>
<text text-anchor="start" x="724.5" y="-456.8" font-family="Times,serif" font-size="14.00">conv3</text>
<polygon fill="#dddddd" stroke="none" points="655.5,-426 655.5,-449 827.5,-449 827.5,-426 655.5,-426"/>
<polygon fill="none" stroke="black" points="655.5,-426 655.5,-449 827.5,-449 827.5,-426 655.5,-426"/>
<text text-anchor="start" x="705" y="-433.8" font-family="Times,serif" font-size="14.00">(1, 32, 3, 28)</text>
<polygon fill="#2ed1c6" stroke="none" points="655.5,-388 655.5,-426 731.5,-426 731.5,-388 655.5,-388"/>
<polygon fill="none" stroke="black" points="655.5,-388 655.5,-426 731.5,-426 731.5,-388 655.5,-388"/>
<text text-anchor="start" x="664" y="-410.8" font-family="Times,serif" font-size="14.00"> 0.774144 </text>
<text text-anchor="start" x="659.5" y="-395.8" font-family="Times,serif" font-size="14.00"> (MFLOPs) </text>
<polygon fill="#f4c9ef" stroke="none" points="731.5,-388 731.5,-426 787.5,-426 787.5,-388 731.5,-388"/>
<polygon fill="none" stroke="black" points="731.5,-388 731.5,-426 787.5,-426 787.5,-388 731.5,-388"/>
<text text-anchor="start" x="740" y="-410.8" font-family="Times,serif" font-size="14.00"> 38.23 </text>
<text text-anchor="start" x="735.5" y="-395.8" font-family="Times,serif" font-size="14.00"> (MB/s) </text>
<polygon fill="#ffff9c" stroke="none" points="787.5,-388 787.5,-426 827.5,-426 827.5,-388 787.5,-388"/>
<polygon fill="none" stroke="black" points="787.5,-388 787.5,-426 827.5,-426 827.5,-388 787.5,-388"/>
<text text-anchor="start" x="791.5" y="-410.8" font-family="Times,serif" font-size="14.00"> 0.35 </text>
<text text-anchor="start" x="792.5" y="-395.8" font-family="Times,serif" font-size="14.00"> (ms)</text>
</g>
<!-- conv2&#45;&gt;conv3 -->
<g id="edge9" class="edge"><title>conv2&#45;&gt;conv3</title>
<path fill="none" stroke="black" d="M609.289,-511.867C625.51,-501.945 642.785,-491.379 659.314,-481.269"/>
<polygon fill="black" stroke="black" points="661.176,-484.233 667.88,-476.03 657.523,-478.262 661.176,-484.233"/>
</g>
<!-- relu2&#45;&gt;conv2 -->
<g id="edge7" class="edge"><title>relu2&#45;&gt;conv2</title>
<path fill="none" stroke="black" d="M542.006,-476.241C542.238,-484.478 542.305,-493.156 542.206,-501.647"/>
<polygon fill="black" stroke="black" points="538.702,-501.799 542.003,-511.867 545.701,-501.938 538.702,-501.799"/>
</g>
<!-- relu3 -->
<g id="node10" class="node"><title>relu3</title>
<polygon fill="#a3a3a3" stroke="none" points="655.5,-321 655.5,-344 827.5,-344 827.5,-321 655.5,-321"/>
<polygon fill="none" stroke="black" points="655.5,-321 655.5,-344 827.5,-344 827.5,-321 655.5,-321"/>
<text text-anchor="start" x="727.5" y="-328.8" font-family="Times,serif" font-size="14.00">relu3</text>
<polygon fill="#dddddd" stroke="none" points="655.5,-298 655.5,-321 827.5,-321 827.5,-298 655.5,-298"/>
<polygon fill="none" stroke="black" points="655.5,-298 655.5,-321 827.5,-321 827.5,-298 655.5,-298"/>
<text text-anchor="start" x="705" y="-305.8" font-family="Times,serif" font-size="14.00">(1, 32, 3, 28)</text>
<polygon fill="#aff0ee" stroke="none" points="655.5,-260 655.5,-298 731.5,-298 731.5,-260 655.5,-260"/>
<polygon fill="none" stroke="black" points="655.5,-260 655.5,-298 731.5,-298 731.5,-260 655.5,-260"/>
<text text-anchor="start" x="664" y="-282.8" font-family="Times,serif" font-size="14.00"> 0.008064 </text>
<text text-anchor="start" x="659.5" y="-267.8" font-family="Times,serif" font-size="14.00"> (MFLOPs) </text>
<polygon fill="#e6a2dd" stroke="none" points="731.5,-260 731.5,-298 787.5,-298 787.5,-260 731.5,-260"/>
<polygon fill="none" stroke="black" points="731.5,-260 731.5,-298 787.5,-298 787.5,-260 731.5,-260"/>
<text text-anchor="start" x="740" y="-282.8" font-family="Times,serif" font-size="14.00"> 92.10 </text>
<text text-anchor="start" x="735.5" y="-267.8" font-family="Times,serif" font-size="14.00"> (MB/s) </text>
<polygon fill="#ffffc3" stroke="none" points="787.5,-260 787.5,-298 827.5,-298 827.5,-260 787.5,-260"/>
<polygon fill="none" stroke="black" points="787.5,-260 787.5,-298 827.5,-298 827.5,-260 787.5,-260"/>
<text text-anchor="start" x="791.5" y="-282.8" font-family="Times,serif" font-size="14.00"> 0.06 </text>
<text text-anchor="start" x="792.5" y="-267.8" font-family="Times,serif" font-size="14.00"> (ms)</text>
</g>
<!-- conv3&#45;&gt;relu3 -->
<g id="edge11" class="edge"><title>conv3&#45;&gt;relu3</title>
<path fill="none" stroke="black" d="M734.997,-383.867C734.764,-375.634 734.696,-366.957 734.793,-358.465"/>
<polygon fill="black" stroke="black" points="738.297,-358.308 734.994,-348.241 731.298,-358.171 738.297,-358.308"/>
</g>
<!-- flatten_2 -->
<g id="node11" class="node"><title>flatten_2</title>
<polygon fill="#a3a3a3" stroke="none" points="861.5,-321 861.5,-344 1033.5,-344 1033.5,-321 861.5,-321"/>
<polygon fill="none" stroke="black" points="861.5,-321 861.5,-344 1033.5,-344 1033.5,-321 861.5,-321"/>
<text text-anchor="start" x="923" y="-328.8" font-family="Times,serif" font-size="14.00">flatten_2</text>
<polygon fill="#dddddd" stroke="none" points="861.5,-298 861.5,-321 1033.5,-321 1033.5,-298 861.5,-298"/>
<polygon fill="none" stroke="black" points="861.5,-298 861.5,-321 1033.5,-321 1033.5,-298 861.5,-298"/>
<text text-anchor="start" x="908" y="-305.8" font-family="Times,serif" font-size="14.00">(1, 2688, 1, 1)</text>
<polygon fill="#b1f1ef" stroke="none" points="861.5,-260 861.5,-298 937.5,-298 937.5,-260 861.5,-260"/>
<polygon fill="none" stroke="black" points="861.5,-260 861.5,-298 937.5,-298 937.5,-260 861.5,-260"/>
<text text-anchor="start" x="887" y="-282.8" font-family="Times,serif" font-size="14.00"> 0.0 </text>
<text text-anchor="start" x="865.5" y="-267.8" font-family="Times,serif" font-size="14.00"> (MFLOPs) </text>
<polygon fill="#f1c1eb" stroke="none" points="937.5,-260 937.5,-298 993.5,-298 993.5,-260 937.5,-260"/>
<polygon fill="none" stroke="black" points="937.5,-260 937.5,-298 993.5,-298 993.5,-260 937.5,-260"/>
<text text-anchor="start" x="946" y="-282.8" font-family="Times,serif" font-size="14.00"> 48.98 </text>
<text text-anchor="start" x="941.5" y="-267.8" font-family="Times,serif" font-size="14.00"> (MB/s) </text>
<polygon fill="#ffffaf" stroke="none" points="993.5,-260 993.5,-298 1033.5,-298 1033.5,-260 993.5,-260"/>
<polygon fill="none" stroke="black" points="993.5,-260 993.5,-298 1033.5,-298 1033.5,-260 993.5,-260"/>
<text text-anchor="start" x="997.5" y="-282.8" font-family="Times,serif" font-size="14.00"> 0.21 </text>
<text text-anchor="start" x="998.5" y="-267.8" font-family="Times,serif" font-size="14.00"> (ms)</text>
</g>
<!-- conv3&#45;&gt;flatten_2 -->
<g id="edge12" class="edge"><title>conv3&#45;&gt;flatten_2</title>
<path fill="none" stroke="black" d="M815.289,-383.867C831.51,-373.945 848.785,-363.379 865.314,-353.269"/>
<polygon fill="black" stroke="black" points="867.176,-356.233 873.88,-348.03 863.523,-350.262 867.176,-356.233"/>
</g>
<!-- relu3&#45;&gt;conv3 -->
<g id="edge10" class="edge"><title>relu3&#45;&gt;conv3</title>
<path fill="none" stroke="black" d="M748.006,-348.241C748.238,-356.478 748.305,-365.156 748.206,-373.647"/>
<polygon fill="black" stroke="black" points="744.702,-373.799 748.003,-383.867 751.701,-373.938 744.702,-373.799"/>
</g>
<!-- dense -->
<g id="node12" class="node"><title>dense</title>
<polygon fill="#a3a3a3" stroke="none" points="861.5,-193 861.5,-216 1033.5,-216 1033.5,-193 861.5,-193"/>
<polygon fill="none" stroke="black" points="861.5,-193 861.5,-216 1033.5,-216 1033.5,-193 861.5,-193"/>
<text text-anchor="start" x="932" y="-200.8" font-family="Times,serif" font-size="14.00">dense</text>
<polygon fill="#dddddd" stroke="none" points="861.5,-170 861.5,-193 1033.5,-193 1033.5,-170 861.5,-170"/>
<polygon fill="none" stroke="black" points="861.5,-170 861.5,-193 1033.5,-193 1033.5,-170 861.5,-170"/>
<text text-anchor="start" x="918" y="-177.8" font-family="Times,serif" font-size="14.00">(1, 2, 1, 1)</text>
<polygon fill="#aff0ee" stroke="none" points="861.5,-132 861.5,-170 937.5,-170 937.5,-132 861.5,-132"/>
<polygon fill="none" stroke="black" points="861.5,-132 861.5,-170 937.5,-170 937.5,-132 861.5,-132"/>
<text text-anchor="start" x="870" y="-154.8" font-family="Times,serif" font-size="14.00"> 0.010752 </text>
<text text-anchor="start" x="865.5" y="-139.8" font-family="Times,serif" font-size="14.00"> (MFLOPs) </text>
<polygon fill="#cc5ebe" stroke="none" points="937.5,-132 937.5,-170 993.5,-170 993.5,-132 937.5,-132"/>
<polygon fill="none" stroke="black" points="937.5,-132 937.5,-170 993.5,-170 993.5,-132 937.5,-132"/>
<text text-anchor="start" x="942.5" y="-154.8" font-family="Times,serif" font-size="14.00"> 186.83 </text>
<text text-anchor="start" x="941.5" y="-139.8" font-family="Times,serif" font-size="14.00"> (MB/s) </text>
<polygon fill="#ffffc5" stroke="none" points="993.5,-132 993.5,-170 1033.5,-170 1033.5,-132 993.5,-132"/>
<polygon fill="none" stroke="black" points="993.5,-132 993.5,-170 1033.5,-170 1033.5,-132 993.5,-132"/>
<text text-anchor="start" x="997.5" y="-154.8" font-family="Times,serif" font-size="14.00"> 0.05 </text>
<text text-anchor="start" x="998.5" y="-139.8" font-family="Times,serif" font-size="14.00"> (ms)</text>
</g>
<!-- flatten_2&#45;&gt;dense -->
<g id="edge13" class="edge"><title>flatten_2&#45;&gt;dense</title>
<path fill="none" stroke="black" d="M947.5,-255.867C947.5,-247.634 947.5,-238.957 947.5,-230.465"/>
<polygon fill="black" stroke="black" points="951,-230.241 947.5,-220.241 944,-230.241 951,-230.241"/>
</g>
<!-- relu4 -->
<g id="node13" class="node"><title>relu4</title>
<polygon fill="#a3a3a3" stroke="none" points="861.5,-65 861.5,-88 1033.5,-88 1033.5,-65 861.5,-65"/>
<polygon fill="none" stroke="black" points="861.5,-65 861.5,-88 1033.5,-88 1033.5,-65 861.5,-65"/>
<text text-anchor="start" x="933.5" y="-72.8" font-family="Times,serif" font-size="14.00">relu4</text>
<polygon fill="#dddddd" stroke="none" points="861.5,-42 861.5,-65 1033.5,-65 1033.5,-42 861.5,-42"/>
<polygon fill="none" stroke="black" points="861.5,-42 861.5,-65 1033.5,-65 1033.5,-42 861.5,-42"/>
<text text-anchor="start" x="918" y="-49.8" font-family="Times,serif" font-size="14.00">(1, 2, 1, 1)</text>
<polygon fill="#b0f0ee" stroke="none" points="861.5,-4 861.5,-42 937.5,-42 937.5,-4 861.5,-4"/>
<polygon fill="none" stroke="black" points="861.5,-4 861.5,-42 937.5,-42 937.5,-4 861.5,-4"/>
<text text-anchor="start" x="880" y="-26.8" font-family="Times,serif" font-size="14.00"> 6e&#45;06 </text>
<text text-anchor="start" x="865.5" y="-11.8" font-family="Times,serif" font-size="14.00"> (MFLOPs) </text>
<polygon fill="#fee4fb" stroke="none" points="937.5,-4 937.5,-42 993.5,-42 993.5,-4 937.5,-4"/>
<polygon fill="none" stroke="black" points="937.5,-4 937.5,-42 993.5,-42 993.5,-4 937.5,-4"/>
<text text-anchor="start" x="949.5" y="-26.8" font-family="Times,serif" font-size="14.00"> 0.13 </text>
<text text-anchor="start" x="941.5" y="-11.8" font-family="Times,serif" font-size="14.00"> (MB/s) </text>
<polygon fill="#ffffc3" stroke="none" points="993.5,-4 993.5,-42 1033.5,-42 1033.5,-4 993.5,-4"/>
<polygon fill="none" stroke="black" points="993.5,-4 993.5,-42 1033.5,-42 1033.5,-4 993.5,-4"/>
<text text-anchor="start" x="997.5" y="-26.8" font-family="Times,serif" font-size="14.00"> 0.06 </text>
<text text-anchor="start" x="998.5" y="-11.8" font-family="Times,serif" font-size="14.00"> (ms)</text>
</g>
<!-- dense&#45;&gt;relu4 -->
<g id="edge15" class="edge"><title>dense&#45;&gt;relu4</title>
<path fill="none" stroke="black" d="M940.997,-127.867C940.764,-119.634 940.696,-110.957 940.793,-102.465"/>
<polygon fill="black" stroke="black" points="944.297,-102.308 940.994,-92.2414 937.298,-102.171 944.297,-102.308"/>
</g>
<!-- Output -->
<g id="node14" class="node"><title>Output</title>
<text text-anchor="middle" x="1122.5" y="-42.3" font-family="Times,serif" font-size="14.00">output: [(1, 2, 1, 1)]</text>
</g>
<!-- dense&#45;&gt;Output -->
<g id="edge16" class="edge"><title>dense&#45;&gt;Output</title>
<path fill="none" stroke="black" d="M1010.18,-127.867C1037.32,-108.331 1067.92,-86.2966 1090.32,-70.1676"/>
<polygon fill="black" stroke="black" points="1092.41,-72.9761 1098.48,-64.2926 1088.32,-67.2953 1092.41,-72.9761"/>
</g>
<!-- relu4&#45;&gt;dense -->
<g id="edge14" class="edge"><title>relu4&#45;&gt;dense</title>
<path fill="none" stroke="black" d="M954.006,-92.2414C954.238,-100.478 954.305,-109.156 954.206,-117.647"/>
<polygon fill="black" stroke="black" points="950.702,-117.799 954.003,-127.867 957.701,-117.938 950.702,-117.799"/>
</g>
<!-- Summary -->
<g id="node15" class="node"><title>Summary</title>
<polygon fill="#c60000" stroke="none" points="450.5,-1063.5 450.5,-1086.5 635.5,-1086.5 635.5,-1063.5 450.5,-1063.5"/>
<polygon fill="none" stroke="black" points="450.5,-1063.5 450.5,-1086.5 635.5,-1086.5 635.5,-1063.5 450.5,-1063.5"/>
<text text-anchor="start" x="515.5" y="-1071.3" font-family="Times,serif" font-size="14.00">Summary</text>
<polygon fill="#e2e2e2" stroke="none" points="450.5,-1040.5 450.5,-1063.5 635.5,-1063.5 635.5,-1040.5 450.5,-1040.5"/>
<polygon fill="none" stroke="black" points="450.5,-1040.5 450.5,-1063.5 635.5,-1063.5 635.5,-1040.5 450.5,-1040.5"/>
<text text-anchor="start" x="490" y="-1048.3" font-family="Times,serif" font-size="14.00">12 SHV Processors</text>
<polygon fill="#dadada" stroke="none" points="450.5,-1017.5 450.5,-1040.5 635.5,-1040.5 635.5,-1017.5 450.5,-1017.5"/>
<polygon fill="none" stroke="black" points="450.5,-1017.5 450.5,-1040.5 635.5,-1040.5 635.5,-1017.5 450.5,-1017.5"/>
<text text-anchor="start" x="479" y="-1025.3" font-family="Times,serif" font-size="14.00">Inference time 3.27 ms</text>
<polygon fill="#e2e2e2" stroke="none" points="450.5,-994.5 450.5,-1017.5 635.5,-1017.5 635.5,-994.5 450.5,-994.5"/>
<polygon fill="none" stroke="black" points="450.5,-994.5 450.5,-1017.5 635.5,-1017.5 635.5,-994.5 450.5,-994.5"/>
<text text-anchor="start" x="476" y="-1002.3" font-family="Times,serif" font-size="14.00">Bandwidth 0.29 MB/sec</text>
<polygon fill="#dadada" stroke="none" points="450.5,-971.5 450.5,-994.5 635.5,-994.5 635.5,-971.5 450.5,-971.5"/>
<polygon fill="none" stroke="black" points="450.5,-971.5 450.5,-994.5 635.5,-994.5 635.5,-971.5 450.5,-971.5"/>
<text text-anchor="start" x="454.5" y="-979.3" font-family="Times,serif" font-size="14.00">This network is Compute bound</text>
</g>
</g>
</svg>
